  0
SECTION
  2
HEADER
  9
$ACADVER
  1
AC1014
  9
$HANDSEED
  5
FFFF
  9
$MEASUREMENT
 70
     1
  0
ENDSEC
  0
SECTION
  2
TABLES
  0
TABLE
  2
VPORT
  5
8
330
0
100
AcDbSymbolTable
 70
     4
  0
VPORT
  5
2E
330
8
100
AcDbSymbolTableRecord
100
AcDbViewportTableRecord
  2
*ACTIVE
 70
     0
 10
0.0
 20
0.0
 11
1.0
 21
1.0
 12
210.0
 22
148.5
 13
0.0
 23
0.0
 14
10.0
 24
10.0
 15
10.0
 25
10.0
 16
0.0
 26
0.0
 36
1.0
 17
0.0
 27
0.0
 37
0.0
 40
341.0
 41
1.24
 42
50.0
 43
0.0
 44
0.0
 50
0.0
 51
0.0
 71
     0
 72
   100
 73
     1
 74
     3
 75
     0
 76
     0
 77
     0
 78
     0
  0
ENDTAB
  0
TABLE
  2
LTYPE
  5
5
330
0
100
AcDbSymbolTable
 70
     1
  0
LTYPE
  5
14
330
5
100
AcDbSymbolTableRecord
100
AcDbLinetypeTableRecord
  2
BYBLOCK
 70
     0
  3

 72
    65
 73
     0
 40
0.0
  0
LTYPE
  5
15
330
5
100
AcDbSymbolTableRecord
100
AcDbLinetypeTableRecord
  2
BYLAYER
 70
     0
  3

 72
    65
 73
     0
 40
0.0
  0
LTYPE
  5
16
330
5
100
AcDbSymbolTableRecord
100
AcDbLinetypeTableRecord
  2
CONTINUOUS
 70
     0
  3
Solid line
 72
    65
 73
     0
 40
0.0
  0
ENDTAB
  0
TABLE
  2
LAYER
  5
2
100
AcDbSymbolTable
 70
1
  0
LAYER
  5
50
100
AcDbSymbolTableRecord
100
AcDbLayerTableRecord
  2
0
 70
0
  6
CONTINUOUS
  0
ENDTAB
  0
TABLE
  2
STYLE
  5
3
330
0
100
AcDbSymbolTable
 70
     1
  0
STYLE
  5
11
330
3
100
AcDbSymbolTableRecord
100
AcDbTextStyleTableRecord
  2
STANDARD
 70
     0
 40
0.0
 41
1.0
 50
0.0
 71
     0
 42
2.5
  3
txt
  4

  0
ENDTAB
  0
TABLE
  2
VIEW
  5
6
330
0
100
AcDbSymbolTable
 70
     0
  0
ENDTAB
  0
TABLE
  2
UCS
  5
7
330
0
100
AcDbSymbolTable
 70
     0
  0
ENDTAB
  0
TABLE
  2
APPID
  5
9
330
0
100
AcDbSymbolTable
 70
     2
  0
APPID
  5
12
330
9
100
AcDbSymbolTableRecord
100
AcDbRegAppTableRecord
  2
ACAD
 70
     0
  0
ENDTAB
  0
TABLE
  2
DIMSTYLE
  5
A
330
0
100
AcDbSymbolTable
 70
     1
  0
DIMSTYLE
105
27
330
A
100
AcDbSymbolTableRecord
100
AcDbDimStyleTableRecord
  2
ISO-25
 70
     0
  3

  4

  5

  6

  7

 40
1.0
 41
2.5
 42
0.625
 43
3.75
 44
1.25
 45
0.0
 46
0.0
 47
0.0
 48
0.0
140
2.5
141
2.5
142
0.0
143
0.03937007874016
144
1.0
145
0.0
146
1.0
147
0.625
 71
     0
 72
     0
 73
     0
 74
     0
 75
     0
 76
     0
 77
     1
 78
     8
170
     0
171
     3
172
     1
173
     0
174
     0
175
     0
176
     0
177
     0
178
     0
270
     2
271
     2
272
     2
273
     2
274
     3
340
11
275
     0
280
     0
281
     0
282
     0
283
     0
284
     8
285
     0
286
     0
287
     3
288
     0
  0
ENDTAB
  0
TABLE
  2
BLOCK_RECORD
  5
1
330
0
100
AcDbSymbolTable
 70
     1
  0
BLOCK_RECORD
  5
1F
330
1
100
AcDbSymbolTableRecord
100
AcDbBlockTableRecord
  2
*MODEL_SPACE
  0
BLOCK_RECORD
  5
1B
330
1
100
AcDbSymbolTableRecord
100
AcDbBlockTableRecord
  2
*PAPER_SPACE
  0
ENDTAB
  0
ENDSEC
  0
SECTION
  2
BLOCKS
  0
BLOCK
  5
20
330
1F
100
AcDbEntity
  8
0
100
AcDbBlockBegin
  2
*MODEL_SPACE
 70
     0
 10
0.0
 20
0.0
 30
0.0
  3
*MODEL_SPACE
  1

  0
ENDBLK
  5
21
330
1F
100
AcDbEntity
  8
0
100
AcDbBlockEnd
  0
BLOCK
  5
1C
330
1B
100
AcDbEntity
 67
     1
  8
0
100
AcDbBlockBegin
  2
*PAPER_SPACE
  1

  0
ENDBLK
  5
1D
330
1B
100
AcDbEntity
 67
     1
  8
0
100
AcDbBlockEnd
  0
ENDSEC
  0
SECTION
  2
ENTITIES
  0
SPLINE
  5
100
100
AcDbEntity
  8
0
 62
1
100
AcDbSpline
 70
8
 71
3
 72
8
 73
4
 74
0
 40
0
 40
0
 40
0
 40
0
 40
1
 40
1
 40
1
 40
1
 10
15.000001
 20
96.549999
 30
0.0
 10
15.000001
 20
89.779817
 30
0.0
 10
11.388151
 20
83.523910
 30
0.0
 10
5.525001
 20
80.138819
 30
0.0
  0
SPLINE
  5
101
100
AcDbEntity
  8
0
 62
1
100
AcDbSpline
 70
8
 71
3
 72
8
 73
4
 74
0
 40
0
 40
0
 40
0
 40
0
 40
1
 40
1
 40
1
 40
1
 10
5.525001
 20
80.138819
 30
0.0
 10
-0.338150
 20
76.753727
 30
0.0
 10
-7.561850
 20
76.753727
 30
0.0
 10
-13.425001
 20
80.138819
 30
0.0
  0
SPLINE
  5
102
100
AcDbEntity
  8
0
 62
1
100
AcDbSpline
 70
8
 71
3
 72
8
 73
4
 74
0
 40
0
 40
0
 40
0
 40
0
 40
1
 40
1
 40
1
 40
1
 10
-13.425001
 20
80.138819
 30
0.0
 10
-19.288151
 20
83.523910
 30
0.0
 10
-22.900001
 20
89.779817
 30
0.0
 10
-22.900001
 20
96.549999
 30
0.0
  0
SPLINE
  5
103
100
AcDbEntity
  8
0
 62
1
100
AcDbSpline
 70
8
 71
3
 72
8
 73
4
 74
0
 40
0
 40
0
 40
0
 40
0
 40
1
 40
1
 40
1
 40
1
 10
-22.900001
 20
96.549999
 30
0.0
 10
-22.900001
 20
103.320182
 30
0.0
 10
-19.288151
 20
109.576089
 30
0.0
 10
-13.425001
 20
112.961180
 30
0.0
  0
SPLINE
  5
104
100
AcDbEntity
  8
0
 62
1
100
AcDbSpline
 70
8
 71
3
 72
8
 73
4
 74
0
 40
0
 40
0
 40
0
 40
0
 40
1
 40
1
 40
1
 40
1
 10
-13.425001
 20
112.961180
 30
0.0
 10
-7.561850
 20
116.346271
 30
0.0
 10
-0.338150
 20
116.346271
 30
0.0
 10
5.525001
 20
112.961180
 30
0.0
  0
SPLINE
  5
105
100
AcDbEntity
  8
0
 62
1
100
AcDbSpline
 70
8
 71
3
 72
8
 73
4
 74
0
 40
0
 40
0
 40
0
 40
0
 40
1
 40
1
 40
1
 40
1
 10
5.525001
 20
112.961180
 30
0.0
 10
11.388151
 20
109.576089
 30
0.0
 10
15.000001
 20
103.320182
 30
0.0
 10
15.000001
 20
96.549999
 30
0.0
  0
LWPOLYLINE
  5
106
100
AcDbEntity
  8
0
 62
1
100
AcDbPolyline
 90
35
 70
1
 10
-33.950999
 20
140.049999
 30
0.0
 10
-32.950000
 20
140.049999
 30
0.0
 10
-26.950000
 20
140.049999
 30
0.0
 10
25.050000
 20
140.049999
 30
0.0
 10
31.050000
 20
140.049999
 30
0.0
 10
44.550000
 20
140.049999
 30
0.0
 10
46.050999
 20
140.049999
 30
0.0
 10
50.048993
 20
136.052006
 30
0.0
 10
50.550000
 20
135.550998
 30
0.0
 10
52.052998
 20
134.048000
 30
0.0
 10
56.050000
 20
130.050998
 30
0.0
 10
56.050000
 20
125.750000
 30
0.0
 10
56.050000
 20
120.750000
 30
0.0
 10
56.050000
 20
74.050533
 30
0.0
 10
56.050000
 20
72.052000
 30
0.0
 10
56.050000
 20
57.047001
 30
0.0
 10
56.050000
 20
50.049999
 30
0.0
 10
52.052998
 20
46.052601
 30
0.0
 10
52.050398
 20
46.050001
 30
0.0
 10
50.047598
 20
44.047003
 30
0.0
 10
49.950608
 20
43.950003
 30
0.0
 10
46.050999
 20
40.049999
 30
0.0
 10
44.550000
 20
40.049999
 30
0.0
 10
-26.950000
 20
40.049999
 30
0.0
 10
-32.950000
 20
40.049999
 30
0.0
 10
-33.950999
 20
40.049999
 30
0.0
 10
-37.850608
 20
43.950001
 30
0.0
 10
-37.947598
 20
44.047001
 30
0.0
 10
-39.952995
 20
46.052601
 30
0.0
 10
-43.950000
 20
50.049999
 30
0.0
 10
-43.950000
 20
120.750000
 30
0.0
 10
-43.950000
 20
125.750000
 30
0.0
 10
-43.950000
 20
130.050998
 30
0.0
 10
-39.952998
 20
134.048000
 30
0.0
 10
-37.948993
 20
136.052006
 30
0.0
  0
SPLINE
  5
107
100
AcDbEntity
  8
0
 62
1
100
AcDbSpline
 70
8
 71
3
 72
8
 73
4
 74
0
 40
0
 40
0
 40
0
 40
0
 40
1
 40
1
 40
1
 40
1
 10
-18.213436
 20
112.495763
 30
0.0
 10
-18.213436
 20
111.888412
 30
0.0
 10
-18.537454
 20
111.327196
 30
0.0
 10
-19.063436
 20
111.023520
 30
0.0
  0
SPLINE
  5
108
100
AcDbEntity
  8
0
 62
1
100
AcDbSpline
 70
8
 71
3
 72
8
 73
4
 74
0
 40
0
 40
0
 40
0
 40
0
 40
1
 40
1
 40
1
 40
1
 10
-19.063436
 20
111.023520
 30
0.0
 10
-19.589418
 20
110.719844
 30
0.0
 10
-20.237454
 20
110.719844
 30
0.0
 10
-20.763436
 20
111.023520
 30
0.0
  0
SPLINE
  5
109
100
AcDbEntity
  8
0
 62
1
100
AcDbSpline
 70
8
 71
3
 72
8
 73
4
 74
0
 40
0
 40
0
 40
0
 40
0
 40
1
 40
1
 40
1
 40
1
 10
-20.763436
 20
111.023520
 30
0.0
 10
-21.289418
 20
111.327196
 30
0.0
 10
-21.613436
 20
111.888412
 30
0.0
 10
-21.613436
 20
112.495763
 30
0.0
  0
SPLINE
  5
10a
100
AcDbEntity
  8
0
 62
1
100
AcDbSpline
 70
8
 71
3
 72
8
 73
4
 74
0
 40
0
 40
0
 40
0
 40
0
 40
1
 40
1
 40
1
 40
1
 10
-21.613436
 20
112.495763
 30
0.0
 10
-21.613436
 20
113.103115
 30
0.0
 10
-21.289418
 20
113.664331
 30
0.0
 10
-20.763436
 20
113.968006
 30
0.0
  0
SPLINE
  5
10b
100
AcDbEntity
  8
0
 62
1
100
AcDbSpline
 70
8
 71
3
 72
8
 73
4
 74
0
 40
0
 40
0
 40
0
 40
0
 40
1
 40
1
 40
1
 40
1
 10
-20.763436
 20
113.968006
 30
0.0
 10
-20.237454
 20
114.271682
 30
0.0
 10
-19.589418
 20
114.271682
 30
0.0
 10
-19.063436
 20
113.968006
 30
0.0
  0
SPLINE
  5
10c
100
AcDbEntity
  8
0
 62
1
100
AcDbSpline
 70
8
 71
3
 72
8
 73
4
 74
0
 40
0
 40
0
 40
0
 40
0
 40
1
 40
1
 40
1
 40
1
 10
-19.063436
 20
113.968006
 30
0.0
 10
-18.537454
 20
113.664331
 30
0.0
 10
-18.213436
 20
113.103115
 30
0.0
 10
-18.213436
 20
112.495763
 30
0.0
  0
LWPOLYLINE
  5
10d
100
AcDbEntity
  8
0
 62
1
100
AcDbPolyline
 90
1
 70
1
 10
15.000001
 20
96.549999
 30
0.0
  0
SPLINE
  5
10e
100
AcDbEntity
  8
0
 62
1
100
AcDbSpline
 70
8
 71
3
 72
8
 73
4
 74
0
 40
0
 40
0
 40
0
 40
0
 40
1
 40
1
 40
1
 40
1
 10
13.790785
 20
112.484056
 30
0.0
 10
13.790785
 20
111.876705
 30
0.0
 10
13.466767
 20
111.315489
 30
0.0
 10
12.940785
 20
111.011813
 30
0.0
  0
SPLINE
  5
10f
100
AcDbEntity
  8
0
 62
1
100
AcDbSpline
 70
8
 71
3
 72
8
 73
4
 74
0
 40
0
 40
0
 40
0
 40
0
 40
1
 40
1
 40
1
 40
1
 10
12.940785
 20
111.011813
 30
0.0
 10
12.414803
 20
110.708137
 30
0.0
 10
11.766767
 20
110.708137
 30
0.0
 10
11.240785
 20
111.011813
 30
0.0
  0
SPLINE
  5
110
100
AcDbEntity
  8
0
 62
1
100
AcDbSpline
 70
8
 71
3
 72
8
 73
4
 74
0
 40
0
 40
0
 40
0
 40
0
 40
1
 40
1
 40
1
 40
1
 10
11.240785
 20
111.011813
 30
0.0
 10
10.714803
 20
111.315489
 30
0.0
 10
10.390785
 20
111.876705
 30
0.0
 10
10.390785
 20
112.484056
 30
0.0
  0
SPLINE
  5
111
100
AcDbEntity
  8
0
 62
1
100
AcDbSpline
 70
8
 71
3
 72
8
 73
4
 74
0
 40
0
 40
0
 40
0
 40
0
 40
1
 40
1
 40
1
 40
1
 10
10.390785
 20
112.484056
 30
0.0
 10
10.390785
 20
113.091408
 30
0.0
 10
10.714803
 20
113.652624
 30
0.0
 10
11.240785
 20
113.956299
 30
0.0
  0
SPLINE
  5
112
100
AcDbEntity
  8
0
 62
1
100
AcDbSpline
 70
8
 71
3
 72
8
 73
4
 74
0
 40
0
 40
0
 40
0
 40
0
 40
1
 40
1
 40
1
 40
1
 10
11.240785
 20
113.956299
 30
0.0
 10
11.766767
 20
114.259975
 30
0.0
 10
12.414803
 20
114.259975
 30
0.0
 10
12.940785
 20
113.956299
 30
0.0
  0
SPLINE
  5
113
100
AcDbEntity
  8
0
 62
1
100
AcDbSpline
 70
8
 71
3
 72
8
 73
4
 74
0
 40
0
 40
0
 40
0
 40
0
 40
1
 40
1
 40
1
 40
1
 10
12.940785
 20
113.956299
 30
0.0
 10
13.466767
 20
113.652624
 30
0.0
 10
13.790785
 20
113.091408
 30
0.0
 10
13.790785
 20
112.484056
 30
0.0
  0
LWPOLYLINE
  5
114
100
AcDbEntity
  8
0
 62
1
100
AcDbPolyline
 90
1
 70
1
 10
-18.213436
 20
112.495763
 30
0.0
  0
SPLINE
  5
115
100
AcDbEntity
  8
0
 62
1
100
AcDbSpline
 70
8
 71
3
 72
8
 73
4
 74
0
 40
0
 40
0
 40
0
 40
0
 40
1
 40
1
 40
1
 40
1
 10
13.784031
 20
80.490810
 30
0.0
 10
13.784031
 20
79.883459
 30
0.0
 10
13.460013
 20
79.322243
 30
0.0
 10
12.934031
 20
79.018567
 30
0.0
  0
SPLINE
  5
116
100
AcDbEntity
  8
0
 62
1
100
AcDbSpline
 70
8
 71
3
 72
8
 73
4
 74
0
 40
0
 40
0
 40
0
 40
0
 40
1
 40
1
 40
1
 40
1
 10
12.934031
 20
79.018567
 30
0.0
 10
12.408049
 20
78.714891
 30
0.0
 10
11.760013
 20
78.714891
 30
0.0
 10
11.234031
 20
79.018567
 30
0.0
  0
SPLINE
  5
117
100
AcDbEntity
  8
0
 62
1
100
AcDbSpline
 70
8
 71
3
 72
8
 73
4
 74
0
 40
0
 40
0
 40
0
 40
0
 40
1
 40
1
 40
1
 40
1
 10
11.234031
 20
79.018567
 30
0.0
 10
10.708049
 20
79.322243
 30
0.0
 10
10.384031
 20
79.883459
 30
0.0
 10
10.384031
 20
80.490810
 30
0.0
  0
SPLINE
  5
118
100
AcDbEntity
  8
0
 62
1
100
AcDbSpline
 70
8
 71
3
 72
8
 73
4
 74
0
 40
0
 40
0
 40
0
 40
0
 40
1
 40
1
 40
1
 40
1
 10
10.384031
 20
80.490810
 30
0.0
 10
10.384031
 20
81.098162
 30
0.0
 10
10.708049
 20
81.659378
 30
0.0
 10
11.234031
 20
81.963053
 30
0.0
  0
SPLINE
  5
119
100
AcDbEntity
  8
0
 62
1
100
AcDbSpline
 70
8
 71
3
 72
8
 73
4
 74
0
 40
0
 40
0
 40
0
 40
0
 40
1
 40
1
 40
1
 40
1
 10
11.234031
 20
81.963053
 30
0.0
 10
11.760013
 20
82.266729
 30
0.0
 10
12.408049
 20
82.266729
 30
0.0
 10
12.934031
 20
81.963053
 30
0.0
  0
SPLINE
  5
11a
100
AcDbEntity
  8
0
 62
1
100
AcDbSpline
 70
8
 71
3
 72
8
 73
4
 74
0
 40
0
 40
0
 40
0
 40
0
 40
1
 40
1
 40
1
 40
1
 10
12.934031
 20
81.963053
 30
0.0
 10
13.460013
 20
81.659378
 30
0.0
 10
13.784031
 20
81.098162
 30
0.0
 10
13.784031
 20
80.490810
 30
0.0
  0
LWPOLYLINE
  5
11b
100
AcDbEntity
  8
0
 62
1
100
AcDbPolyline
 90
1
 70
1
 10
13.790785
 20
112.484056
 30
0.0
  0
SPLINE
  5
11c
100
AcDbEntity
  8
0
 62
1
100
AcDbSpline
 70
8
 71
3
 72
8
 73
4
 74
0
 40
0
 40
0
 40
0
 40
0
 40
1
 40
1
 40
1
 40
1
 10
-18.222723
 20
80.504316
 30
0.0
 10
-18.222723
 20
79.565432
 30
0.0
 10
-18.983839
 20
78.804316
 30
0.0
 10
-19.922723
 20
78.804316
 30
0.0
  0
SPLINE
  5
11d
100
AcDbEntity
  8
0
 62
1
100
AcDbSpline
 70
8
 71
3
 72
8
 73
4
 74
0
 40
0
 40
0
 40
0
 40
0
 40
1
 40
1
 40
1
 40
1
 10
-19.922723
 20
78.804316
 30
0.0
 10
-20.861607
 20
78.804316
 30
0.0
 10
-21.622723
 20
79.565432
 30
0.0
 10
-21.622723
 20
80.504316
 30
0.0
  0
SPLINE
  5
11e
100
AcDbEntity
  8
0
 62
1
100
AcDbSpline
 70
8
 71
3
 72
8
 73
4
 74
0
 40
0
 40
0
 40
0
 40
0
 40
1
 40
1
 40
1
 40
1
 10
-21.622723
 20
80.504316
 30
0.0
 10
-21.622723
 20
81.111668
 30
0.0
 10
-21.298705
 20
81.672884
 30
0.0
 10
-20.772723
 20
81.976559
 30
0.0
  0
SPLINE
  5
11f
100
AcDbEntity
  8
0
 62
1
100
AcDbSpline
 70
8
 71
3
 72
8
 73
4
 74
0
 40
0
 40
0
 40
0
 40
0
 40
1
 40
1
 40
1
 40
1
 10
-20.772723
 20
81.976559
 30
0.0
 10
-20.246741
 20
82.280235
 30
0.0
 10
-19.598705
 20
82.280235
 30
0.0
 10
-19.072723
 20
81.976559
 30
0.0
  0
SPLINE
  5
120
100
AcDbEntity
  8
0
 62
1
100
AcDbSpline
 70
8
 71
3
 72
8
 73
4
 74
0
 40
0
 40
0
 40
0
 40
0
 40
1
 40
1
 40
1
 40
1
 10
-19.072723
 20
81.976559
 30
0.0
 10
-18.546741
 20
81.672884
 30
0.0
 10
-18.222723
 20
81.111668
 30
0.0
 10
-18.222723
 20
80.504316
 30
0.0
  0
LWPOLYLINE
  5
121
100
AcDbEntity
  8
0
 62
1
100
AcDbPolyline
 90
1
 70
1
 10
13.784031
 20
80.490810
 30
0.0
  0
SPLINE
  5
122
100
AcDbEntity
  8
0
 62
1
100
AcDbSpline
 70
8
 71
3
 72
8
 73
4
 74
0
 40
0
 40
0
 40
0
 40
0
 40
1
 40
1
 40
1
 40
1
 10
49.255539
 20
131.049370
 30
0.0
 10
49.255539
 20
130.442019
 30
0.0
 10
48.931521
 20
129.880803
 30
0.0
 10
48.405539
 20
129.577127
 30
0.0
  0
SPLINE
  5
123
100
AcDbEntity
  8
0
 62
1
100
AcDbSpline
 70
8
 71
3
 72
8
 73
4
 74
0
 40
0
 40
0
 40
0
 40
0
 40
1
 40
1
 40
1
 40
1
 10
48.405539
 20
129.577127
 30
0.0
 10
47.879557
 20
129.273451
 30
0.0
 10
47.231521
 20
129.273451
 30
0.0
 10
46.705539
 20
129.577127
 30
0.0
  0
SPLINE
  5
124
100
AcDbEntity
  8
0
 62
1
100
AcDbSpline
 70
8
 71
3
 72
8
 73
4
 74
0
 40
0
 40
0
 40
0
 40
0
 40
1
 40
1
 40
1
 40
1
 10
46.705539
 20
129.577127
 30
0.0
 10
46.179557
 20
129.880803
 30
0.0
 10
45.855539
 20
130.442019
 30
0.0
 10
45.855539
 20
131.049370
 30
0.0
  0
SPLINE
  5
125
100
AcDbEntity
  8
0
 62
1
100
AcDbSpline
 70
8
 71
3
 72
8
 73
4
 74
0
 40
0
 40
0
 40
0
 40
0
 40
1
 40
1
 40
1
 40
1
 10
45.855539
 20
131.049370
 30
0.0
 10
45.855539
 20
131.656722
 30
0.0
 10
46.179557
 20
132.217938
 30
0.0
 10
46.705539
 20
132.521613
 30
0.0
  0
SPLINE
  5
126
100
AcDbEntity
  8
0
 62
1
100
AcDbSpline
 70
8
 71
3
 72
8
 73
4
 74
0
 40
0
 40
0
 40
0
 40
0
 40
1
 40
1
 40
1
 40
1
 10
46.705539
 20
132.521613
 30
0.0
 10
47.231521
 20
132.825289
 30
0.0
 10
47.879557
 20
132.825289
 30
0.0
 10
48.405539
 20
132.521613
 30
0.0
  0
SPLINE
  5
127
100
AcDbEntity
  8
0
 62
1
100
AcDbSpline
 70
8
 71
3
 72
8
 73
4
 74
0
 40
0
 40
0
 40
0
 40
0
 40
1
 40
1
 40
1
 40
1
 10
48.405539
 20
132.521613
 30
0.0
 10
48.931521
 20
132.217938
 30
0.0
 10
49.255539
 20
131.656722
 30
0.0
 10
49.255539
 20
131.049370
 30
0.0
  0
LWPOLYLINE
  5
128
100
AcDbEntity
  8
0
 62
1
100
AcDbPolyline
 90
1
 70
1
 10
-18.222723
 20
80.504316
 30
0.0
  0
SPLINE
  5
129
100
AcDbEntity
  8
0
 62
1
100
AcDbSpline
 70
8
 71
3
 72
8
 73
4
 74
0
 40
0
 40
0
 40
0
 40
0
 40
1
 40
1
 40
1
 40
1
 10
-33.737743
 20
131.068472
 30
0.0
 10
-33.737743
 20
130.461121
 30
0.0
 10
-34.061761
 20
129.899905
 30
0.0
 10
-34.587743
 20
129.596229
 30
0.0
  0
SPLINE
  5
12a
100
AcDbEntity
  8
0
 62
1
100
AcDbSpline
 70
8
 71
3
 72
8
 73
4
 74
0
 40
0
 40
0
 40
0
 40
0
 40
1
 40
1
 40
1
 40
1
 10
-34.587743
 20
129.596229
 30
0.0
 10
-35.113725
 20
129.292553
 30
0.0
 10
-35.761761
 20
129.292553
 30
0.0
 10
-36.287743
 20
129.596229
 30
0.0
  0
SPLINE
  5
12b
100
AcDbEntity
  8
0
 62
1
100
AcDbSpline
 70
8
 71
3
 72
8
 73
4
 74
0
 40
0
 40
0
 40
0
 40
0
 40
1
 40
1
 40
1
 40
1
 10
-36.287743
 20
129.596229
 30
0.0
 10
-36.813725
 20
129.899905
 30
0.0
 10
-37.137743
 20
130.461121
 30
0.0
 10
-37.137743
 20
131.068472
 30
0.0
  0
SPLINE
  5
12c
100
AcDbEntity
  8
0
 62
1
100
AcDbSpline
 70
8
 71
3
 72
8
 73
4
 74
0
 40
0
 40
0
 40
0
 40
0
 40
1
 40
1
 40
1
 40
1
 10
-37.137743
 20
131.068472
 30
0.0
 10
-37.137743
 20
131.675824
 30
0.0
 10
-36.813725
 20
132.237040
 30
0.0
 10
-36.287743
 20
132.540715
 30
0.0
  0
SPLINE
  5
12d
100
AcDbEntity
  8
0
 62
1
100
AcDbSpline
 70
8
 71
3
 72
8
 73
4
 74
0
 40
0
 40
0
 40
0
 40
0
 40
1
 40
1
 40
1
 40
1
 10
-36.287743
 20
132.540715
 30
0.0
 10
-35.761761
 20
132.844391
 30
0.0
 10
-35.113725
 20
132.844391
 30
0.0
 10
-34.587743
 20
132.540715
 30
0.0
  0
SPLINE
  5
12e
100
AcDbEntity
  8
0
 62
1
100
AcDbSpline
 70
8
 71
3
 72
8
 73
4
 74
0
 40
0
 40
0
 40
0
 40
0
 40
1
 40
1
 40
1
 40
1
 10
-34.587743
 20
132.540715
 30
0.0
 10
-34.061761
 20
132.237040
 30
0.0
 10
-33.737743
 20
131.675824
 30
0.0
 10
-33.737743
 20
131.068472
 30
0.0
  0
LWPOLYLINE
  5
12f
100
AcDbEntity
  8
0
 62
1
100
AcDbPolyline
 90
1
 70
1
 10
49.255539
 20
131.049370
 30
0.0
  0
SPLINE
  5
130
100
AcDbEntity
  8
0
 62
1
100
AcDbSpline
 70
8
 71
3
 72
8
 73
4
 74
0
 40
0
 40
0
 40
0
 40
0
 40
1
 40
1
 40
1
 40
1
 10
-33.732967
 20
49.058883
 30
0.0
 10
-33.732967
 20
48.451532
 30
0.0
 10
-34.056985
 20
47.890316
 30
0.0
 10
-34.582967
 20
47.586640
 30
0.0
  0
SPLINE
  5
131
100
AcDbEntity
  8
0
 62
1
100
AcDbSpline
 70
8
 71
3
 72
8
 73
4
 74
0
 40
0
 40
0
 40
0
 40
0
 40
1
 40
1
 40
1
 40
1
 10
-34.582967
 20
47.586640
 30
0.0
 10
-35.108949
 20
47.282964
 30
0.0
 10
-35.756985
 20
47.282964
 30
0.0
 10
-36.282967
 20
47.586640
 30
0.0
  0
SPLINE
  5
132
100
AcDbEntity
  8
0
 62
1
100
AcDbSpline
 70
8
 71
3
 72
8
 73
4
 74
0
 40
0
 40
0
 40
0
 40
0
 40
1
 40
1
 40
1
 40
1
 10
-36.282967
 20
47.586640
 30
0.0
 10
-36.808949
 20
47.890316
 30
0.0
 10
-37.132967
 20
48.451532
 30
0.0
 10
-37.132967
 20
49.058883
 30
0.0
  0
SPLINE
  5
133
100
AcDbEntity
  8
0
 62
1
100
AcDbSpline
 70
8
 71
3
 72
8
 73
4
 74
0
 40
0
 40
0
 40
0
 40
0
 40
1
 40
1
 40
1
 40
1
 10
-37.132967
 20
49.058883
 30
0.0
 10
-37.132967
 20
49.666235
 30
0.0
 10
-36.808949
 20
50.227451
 30
0.0
 10
-36.282967
 20
50.531126
 30
0.0
  0
SPLINE
  5
134
100
AcDbEntity
  8
0
 62
1
100
AcDbSpline
 70
8
 71
3
 72
8
 73
4
 74
0
 40
0
 40
0
 40
0
 40
0
 40
1
 40
1
 40
1
 40
1
 10
-36.282967
 20
50.531126
 30
0.0
 10
-35.756985
 20
50.834802
 30
0.0
 10
-35.108949
 20
50.834802
 30
0.0
 10
-34.582967
 20
50.531126
 30
0.0
  0
SPLINE
  5
135
100
AcDbEntity
  8
0
 62
1
100
AcDbSpline
 70
8
 71
3
 72
8
 73
4
 74
0
 40
0
 40
0
 40
0
 40
0
 40
1
 40
1
 40
1
 40
1
 10
-34.582967
 20
50.531126
 30
0.0
 10
-34.056985
 20
50.227451
 30
0.0
 10
-33.732967
 20
49.666235
 30
0.0
 10
-33.732967
 20
49.058883
 30
0.0
  0
LWPOLYLINE
  5
136
100
AcDbEntity
  8
0
 62
1
100
AcDbPolyline
 90
1
 70
1
 10
-33.737743
 20
131.068472
 30
0.0
  0
SPLINE
  5
137
100
AcDbEntity
  8
0
 62
1
100
AcDbSpline
 70
8
 71
3
 72
8
 73
4
 74
0
 40
0
 40
0
 40
0
 40
0
 40
1
 40
1
 40
1
 40
1
 10
49.260315
 20
49.049328
 30
0.0
 10
49.260315
 20
48.441977
 30
0.0
 10
48.936297
 20
47.880761
 30
0.0
 10
48.410315
 20
47.577085
 30
0.0
  0
SPLINE
  5
138
100
AcDbEntity
  8
0
 62
1
100
AcDbSpline
 70
8
 71
3
 72
8
 73
4
 74
0
 40
0
 40
0
 40
0
 40
0
 40
1
 40
1
 40
1
 40
1
 10
48.410315
 20
47.577085
 30
0.0
 10
47.884333
 20
47.273409
 30
0.0
 10
47.236297
 20
47.273409
 30
0.0
 10
46.710315
 20
47.577085
 30
0.0
  0
SPLINE
  5
139
100
AcDbEntity
  8
0
 62
1
100
AcDbSpline
 70
8
 71
3
 72
8
 73
4
 74
0
 40
0
 40
0
 40
0
 40
0
 40
1
 40
1
 40
1
 40
1
 10
46.710315
 20
47.577085
 30
0.0
 10
46.184333
 20
47.880761
 30
0.0
 10
45.860315
 20
48.441977
 30
0.0
 10
45.860315
 20
49.049328
 30
0.0
  0
SPLINE
  5
13a
100
AcDbEntity
  8
0
 62
1
100
AcDbSpline
 70
8
 71
3
 72
8
 73
4
 74
0
 40
0
 40
0
 40
0
 40
0
 40
1
 40
1
 40
1
 40
1
 10
45.860315
 20
49.049328
 30
0.0
 10
45.860315
 20
49.656680
 30
0.0
 10
46.184333
 20
50.217896
 30
0.0
 10
46.710315
 20
50.521571
 30
0.0
  0
SPLINE
  5
13b
100
AcDbEntity
  8
0
 62
1
100
AcDbSpline
 70
8
 71
3
 72
8
 73
4
 74
0
 40
0
 40
0
 40
0
 40
0
 40
1
 40
1
 40
1
 40
1
 10
46.710315
 20
50.521571
 30
0.0
 10
47.236297
 20
50.825247
 30
0.0
 10
47.884333
 20
50.825247
 30
0.0
 10
48.410315
 20
50.521571
 30
0.0
  0
SPLINE
  5
13c
100
AcDbEntity
  8
0
 62
1
100
AcDbSpline
 70
8
 71
3
 72
8
 73
4
 74
0
 40
0
 40
0
 40
0
 40
0
 40
1
 40
1
 40
1
 40
1
 10
48.410315
 20
50.521571
 30
0.0
 10
48.936297
 20
50.217896
 30
0.0
 10
49.260315
 20
49.656680
 30
0.0
 10
49.260315
 20
49.049328
 30
0.0
  0
LWPOLYLINE
  5
13d
100
AcDbEntity
  8
0
 62
1
100
AcDbPolyline
 90
1
 70
1
 10
-33.732967
 20
49.058883
 30
0.0
  0
LWPOLYLINE
  5
13e
100
AcDbEntity
  8
0
 62
1
100
AcDbPolyline
 90
1
 70
1
 10
49.260315
 20
49.049328
 30
0.0
  0
SPLINE
  5
13f
100
AcDbEntity
  8
0
 62
1
100
AcDbSpline
 70
8
 71
3
 72
8
 73
4
 74
0
 40
0
 40
0
 40
0
 40
0
 40
1
 40
1
 40
1
 40
1
 10
66.921824
 20
131.303001
 30
0.0
 10
66.921824
 20
130.695649
 30
0.0
 10
67.245842
 20
130.134434
 30
0.0
 10
67.771824
 20
129.830758
 30
0.0
  0
SPLINE
  5
140
100
AcDbEntity
  8
0
 62
1
100
AcDbSpline
 70
8
 71
3
 72
8
 73
4
 74
0
 40
0
 40
0
 40
0
 40
0
 40
1
 40
1
 40
1
 40
1
 10
67.771824
 20
129.830758
 30
0.0
 10
68.297806
 20
129.527082
 30
0.0
 10
68.945842
 20
129.527082
 30
0.0
 10
69.471824
 20
129.830758
 30
0.0
  0
SPLINE
  5
141
100
AcDbEntity
  8
0
 62
1
100
AcDbSpline
 70
8
 71
3
 72
8
 73
4
 74
0
 40
0
 40
0
 40
0
 40
0
 40
1
 40
1
 40
1
 40
1
 10
69.471824
 20
129.830758
 30
0.0
 10
69.997806
 20
130.134434
 30
0.0
 10
70.321824
 20
130.695649
 30
0.0
 10
70.321824
 20
131.303001
 30
0.0
  0
SPLINE
  5
142
100
AcDbEntity
  8
0
 62
1
100
AcDbSpline
 70
8
 71
3
 72
8
 73
4
 74
0
 40
0
 40
0
 40
0
 40
0
 40
1
 40
1
 40
1
 40
1
 10
70.321824
 20
131.303001
 30
0.0
 10
70.321824
 20
131.910353
 30
0.0
 10
69.997806
 20
132.471568
 30
0.0
 10
69.471824
 20
132.775244
 30
0.0
  0
SPLINE
  5
143
100
AcDbEntity
  8
0
 62
1
100
AcDbSpline
 70
8
 71
3
 72
8
 73
4
 74
0
 40
0
 40
0
 40
0
 40
0
 40
1
 40
1
 40
1
 40
1
 10
69.471824
 20
132.775244
 30
0.0
 10
68.945842
 20
133.078920
 30
0.0
 10
68.297806
 20
133.078920
 30
0.0
 10
67.771824
 20
132.775244
 30
0.0
  0
SPLINE
  5
144
100
AcDbEntity
  8
0
 62
1
100
AcDbSpline
 70
8
 71
3
 72
8
 73
4
 74
0
 40
0
 40
0
 40
0
 40
0
 40
1
 40
1
 40
1
 40
1
 10
67.771824
 20
132.775244
 30
0.0
 10
67.245842
 20
132.471568
 30
0.0
 10
66.921824
 20
131.910353
 30
0.0
 10
66.921824
 20
131.303001
 30
0.0
  0
LWPOLYLINE
  5
145
100
AcDbEntity
  8
0
 62
1
100
AcDbPolyline
 90
35
 70
1
 10
150.128363
 20
140.303630
 30
0.0
 10
149.127363
 20
140.303630
 30
0.0
 10
143.127363
 20
140.303630
 30
0.0
 10
91.127363
 20
140.303630
 30
0.0
 10
85.127363
 20
140.303630
 30
0.0
 10
71.627363
 20
140.303630
 30
0.0
 10
70.126364
 20
140.303630
 30
0.0
 10
66.128370
 20
136.305637
 30
0.0
 10
65.627363
 20
135.804629
 30
0.0
 10
64.124365
 20
134.301631
 30
0.0
 10
60.127363
 20
130.304629
 30
0.0
 10
60.127363
 20
126.003631
 30
0.0
 10
60.127363
 20
121.003631
 30
0.0
 10
60.127363
 20
74.304164
 30
0.0
 10
60.127363
 20
72.305631
 30
0.0
 10
60.127363
 20
57.300632
 30
0.0
 10
60.127363
 20
50.303630
 30
0.0
 10
64.124365
 20
46.306232
 30
0.0
 10
64.126965
 20
46.303632
 30
0.0
 10
66.129765
 20
44.300634
 30
0.0
 10
66.226755
 20
44.203634
 30
0.0
 10
70.126364
 20
40.303630
 30
0.0
 10
71.627363
 20
40.303630
 30
0.0
 10
143.127363
 20
40.303630
 30
0.0
 10
149.127363
 20
40.303630
 30
0.0
 10
150.128363
 20
40.303630
 30
0.0
 10
154.027973
 20
44.203632
 30
0.0
 10
154.124973
 20
44.300632
 30
0.0
 10
156.130363
 20
46.306232
 30
0.0
 10
160.127373
 20
50.303630
 30
0.0
 10
160.127373
 20
121.003631
 30
0.0
 10
160.127373
 20
126.003631
 30
0.0
 10
160.127373
 20
130.304629
 30
0.0
 10
156.130373
 20
134.301631
 30
0.0
 10
154.126363
 20
136.305637
 30
0.0
  0
SPLINE
  5
146
100
AcDbEntity
  8
0
 62
1
100
AcDbSpline
 70
8
 71
3
 72
8
 73
4
 74
0
 40
0
 40
0
 40
0
 40
0
 40
1
 40
1
 40
1
 40
1
 10
149.915103
 20
131.322103
 30
0.0
 10
149.915103
 20
130.714752
 30
0.0
 10
150.239121
 20
130.153536
 30
0.0
 10
150.765103
 20
129.849860
 30
0.0
  0
SPLINE
  5
147
100
AcDbEntity
  8
0
 62
1
100
AcDbSpline
 70
8
 71
3
 72
8
 73
4
 74
0
 40
0
 40
0
 40
0
 40
0
 40
1
 40
1
 40
1
 40
1
 10
150.765103
 20
129.849860
 30
0.0
 10
151.291085
 20
129.546184
 30
0.0
 10
151.939121
 20
129.546184
 30
0.0
 10
152.465103
 20
129.849860
 30
0.0
  0
SPLINE
  5
148
100
AcDbEntity
  8
0
 62
1
100
AcDbSpline
 70
8
 71
3
 72
8
 73
4
 74
0
 40
0
 40
0
 40
0
 40
0
 40
1
 40
1
 40
1
 40
1
 10
152.465103
 20
129.849860
 30
0.0
 10
152.991085
 20
130.153536
 30
0.0
 10
153.315103
 20
130.714752
 30
0.0
 10
153.315103
 20
131.322103
 30
0.0
  0
SPLINE
  5
149
100
AcDbEntity
  8
0
 62
1
100
AcDbSpline
 70
8
 71
3
 72
8
 73
4
 74
0
 40
0
 40
0
 40
0
 40
0
 40
1
 40
1
 40
1
 40
1
 10
153.315103
 20
131.322103
 30
0.0
 10
153.315103
 20
131.929454
 30
0.0
 10
152.991085
 20
132.490670
 30
0.0
 10
152.465103
 20
132.794346
 30
0.0
  0
SPLINE
  5
14a
100
AcDbEntity
  8
0
 62
1
100
AcDbSpline
 70
8
 71
3
 72
8
 73
4
 74
0
 40
0
 40
0
 40
0
 40
0
 40
1
 40
1
 40
1
 40
1
 10
152.465103
 20
132.794346
 30
0.0
 10
151.939121
 20
133.098022
 30
0.0
 10
151.291085
 20
133.098022
 30
0.0
 10
150.765103
 20
132.794346
 30
0.0
  0
SPLINE
  5
14b
100
AcDbEntity
  8
0
 62
1
100
AcDbSpline
 70
8
 71
3
 72
8
 73
4
 74
0
 40
0
 40
0
 40
0
 40
0
 40
1
 40
1
 40
1
 40
1
 10
150.765103
 20
132.794346
 30
0.0
 10
150.239121
 20
132.490670
 30
0.0
 10
149.915103
 20
131.929454
 30
0.0
 10
149.915103
 20
131.322103
 30
0.0
  0
LWPOLYLINE
  5
14c
100
AcDbEntity
  8
0
 62
1
100
AcDbPolyline
 90
1
 70
1
 10
66.921824
 20
131.303001
 30
0.0
  0
SPLINE
  5
14d
100
AcDbEntity
  8
0
 62
1
100
AcDbSpline
 70
8
 71
3
 72
8
 73
4
 74
0
 40
0
 40
0
 40
0
 40
0
 40
1
 40
1
 40
1
 40
1
 10
149.910323
 20
49.312514
 30
0.0
 10
149.910323
 20
48.705162
 30
0.0
 10
150.234341
 20
48.143947
 30
0.0
 10
150.760323
 20
47.840271
 30
0.0
  0
SPLINE
  5
14e
100
AcDbEntity
  8
0
 62
1
100
AcDbSpline
 70
8
 71
3
 72
8
 73
4
 74
0
 40
0
 40
0
 40
0
 40
0
 40
1
 40
1
 40
1
 40
1
 10
150.760323
 20
47.840271
 30
0.0
 10
151.286305
 20
47.536595
 30
0.0
 10
151.934341
 20
47.536595
 30
0.0
 10
152.460323
 20
47.840271
 30
0.0
  0
SPLINE
  5
14f
100
AcDbEntity
  8
0
 62
1
100
AcDbSpline
 70
8
 71
3
 72
8
 73
4
 74
0
 40
0
 40
0
 40
0
 40
0
 40
1
 40
1
 40
1
 40
1
 10
152.460323
 20
47.840271
 30
0.0
 10
152.986305
 20
48.143947
 30
0.0
 10
153.310323
 20
48.705162
 30
0.0
 10
153.310323
 20
49.312514
 30
0.0
  0
SPLINE
  5
150
100
AcDbEntity
  8
0
 62
1
100
AcDbSpline
 70
8
 71
3
 72
8
 73
4
 74
0
 40
0
 40
0
 40
0
 40
0
 40
1
 40
1
 40
1
 40
1
 10
153.310323
 20
49.312514
 30
0.0
 10
153.310323
 20
49.919866
 30
0.0
 10
152.986305
 20
50.481081
 30
0.0
 10
152.460323
 20
50.784757
 30
0.0
  0
SPLINE
  5
151
100
AcDbEntity
  8
0
 62
1
100
AcDbSpline
 70
8
 71
3
 72
8
 73
4
 74
0
 40
0
 40
0
 40
0
 40
0
 40
1
 40
1
 40
1
 40
1
 10
152.460323
 20
50.784757
 30
0.0
 10
151.934341
 20
51.088433
 30
0.0
 10
151.286305
 20
51.088433
 30
0.0
 10
150.760323
 20
50.784757
 30
0.0
  0
SPLINE
  5
152
100
AcDbEntity
  8
0
 62
1
100
AcDbSpline
 70
8
 71
3
 72
8
 73
4
 74
0
 40
0
 40
0
 40
0
 40
0
 40
1
 40
1
 40
1
 40
1
 10
150.760323
 20
50.784757
 30
0.0
 10
150.234341
 20
50.481081
 30
0.0
 10
149.910323
 20
49.919866
 30
0.0
 10
149.910323
 20
49.312514
 30
0.0
  0
LWPOLYLINE
  5
153
100
AcDbEntity
  8
0
 62
1
100
AcDbPolyline
 90
1
 70
1
 10
149.915103
 20
131.322103
 30
0.0
  0
SPLINE
  5
154
100
AcDbEntity
  8
0
 62
1
100
AcDbSpline
 70
8
 71
3
 72
8
 73
4
 74
0
 40
0
 40
0
 40
0
 40
0
 40
1
 40
1
 40
1
 40
1
 10
66.917048
 20
49.302959
 30
0.0
 10
66.917048
 20
48.695607
 30
0.0
 10
67.241066
 20
48.134392
 30
0.0
 10
67.767048
 20
47.830716
 30
0.0
  0
SPLINE
  5
155
100
AcDbEntity
  8
0
 62
1
100
AcDbSpline
 70
8
 71
3
 72
8
 73
4
 74
0
 40
0
 40
0
 40
0
 40
0
 40
1
 40
1
 40
1
 40
1
 10
67.767048
 20
47.830716
 30
0.0
 10
68.293030
 20
47.527040
 30
0.0
 10
68.941066
 20
47.527040
 30
0.0
 10
69.467048
 20
47.830716
 30
0.0
  0
SPLINE
  5
156
100
AcDbEntity
  8
0
 62
1
100
AcDbSpline
 70
8
 71
3
 72
8
 73
4
 74
0
 40
0
 40
0
 40
0
 40
0
 40
1
 40
1
 40
1
 40
1
 10
69.467048
 20
47.830716
 30
0.0
 10
69.993030
 20
48.134392
 30
0.0
 10
70.317048
 20
48.695607
 30
0.0
 10
70.317048
 20
49.302959
 30
0.0
  0
SPLINE
  5
157
100
AcDbEntity
  8
0
 62
1
100
AcDbSpline
 70
8
 71
3
 72
8
 73
4
 74
0
 40
0
 40
0
 40
0
 40
0
 40
1
 40
1
 40
1
 40
1
 10
70.317048
 20
49.302959
 30
0.0
 10
70.317048
 20
49.910311
 30
0.0
 10
69.993030
 20
50.471526
 30
0.0
 10
69.467048
 20
50.775202
 30
0.0
  0
SPLINE
  5
158
100
AcDbEntity
  8
0
 62
1
100
AcDbSpline
 70
8
 71
3
 72
8
 73
4
 74
0
 40
0
 40
0
 40
0
 40
0
 40
1
 40
1
 40
1
 40
1
 10
69.467048
 20
50.775202
 30
0.0
 10
68.941066
 20
51.078878
 30
0.0
 10
68.293030
 20
51.078878
 30
0.0
 10
67.767048
 20
50.775202
 30
0.0
  0
SPLINE
  5
159
100
AcDbEntity
  8
0
 62
1
100
AcDbSpline
 70
8
 71
3
 72
8
 73
4
 74
0
 40
0
 40
0
 40
0
 40
0
 40
1
 40
1
 40
1
 40
1
 10
67.767048
 20
50.775202
 30
0.0
 10
67.241066
 20
50.471526
 30
0.0
 10
66.917048
 20
49.910311
 30
0.0
 10
66.917048
 20
49.302959
 30
0.0
  0
LWPOLYLINE
  5
15a
100
AcDbEntity
  8
0
 62
1
100
AcDbPolyline
 90
1
 70
1
 10
149.910323
 20
49.312514
 30
0.0
  0
LWPOLYLINE
  5
15b
100
AcDbEntity
  8
0
 62
1
100
AcDbPolyline
 90
1
 70
1
 10
66.917048
 20
49.302959
 30
0.0
  0
LWPOLYLINE
  5
15c
100
AcDbEntity
  8
0
 62
1
100
AcDbPolyline
 90
6
 70
1
 10
87.196186
 20
57.763118
 30
0.0
 10
82.997183
 20
60.238126
 30
0.0
 10
82.997183
 20
65.188142
 30
0.0
 10
87.196186
 20
67.663151
 30
0.0
 10
91.395188
 20
65.188143
 30
0.0
 10
91.395188
 20
60.238126
 30
0.0
  0
LWPOLYLINE
  5
15d
100
AcDbEntity
  8
0
 62
1
100
AcDbPolyline
 90
6
 70
1
 10
102.937265
 20
67.172445
 30
0.0
 10
98.738262
 20
69.647453
 30
0.0
 10
98.738262
 20
74.597469
 30
0.0
 10
102.937265
 20
77.072478
 30
0.0
 10
107.136267
 20
74.597470
 30
0.0
 10
107.136267
 20
69.647453
 30
0.0
  0
LWPOLYLINE
  5
15e
100
AcDbEntity
  8
0
 62
1
100
AcDbPolyline
 90
6
 70
1
 10
92.477948
 20
67.172445
 30
0.0
 10
88.278945
 20
69.647453
 30
0.0
 10
88.278945
 20
74.597469
 30
0.0
 10
92.477948
 20
77.072478
 30
0.0
 10
96.676950
 20
74.597470
 30
0.0
 10
96.676950
 20
69.647453
 30
0.0
  0
LWPOLYLINE
  5
15f
100
AcDbEntity
  8
0
 62
1
100
AcDbPolyline
 90
6
 70
1
 10
118.678777
 20
76.257806
 30
0.0
 10
114.479774
 20
78.732814
 30
0.0
 10
114.479774
 20
83.682830
 30
0.0
 10
118.678777
 20
86.157839
 30
0.0
 10
122.877779
 20
83.682831
 30
0.0
 10
122.877779
 20
78.732814
 30
0.0
  0
LWPOLYLINE
  5
160
100
AcDbEntity
  8
0
 62
1
100
AcDbPolyline
 90
6
 70
1
 10
129.138112
 20
76.257806
 30
0.0
 10
124.939109
 20
78.732814
 30
0.0
 10
124.939109
 20
83.682830
 30
0.0
 10
129.138112
 20
86.157839
 30
0.0
 10
133.337114
 20
83.682831
 30
0.0
 10
133.337114
 20
78.732814
 30
0.0
  0
LWPOLYLINE
  5
161
100
AcDbEntity
  8
0
 62
1
100
AcDbPolyline
 90
6
 70
1
 10
108.219478
 20
76.257806
 30
0.0
 10
104.020475
 20
78.732814
 30
0.0
 10
104.020475
 20
83.682830
 30
0.0
 10
108.219478
 20
86.157839
 30
0.0
 10
112.418480
 20
83.682831
 30
0.0
 10
112.418480
 20
78.732814
 30
0.0
  0
LWPOLYLINE
  5
162
100
AcDbEntity
  8
0
 62
1
100
AcDbPolyline
 90
6
 70
1
 10
97.760143
 20
76.257806
 30
0.0
 10
93.561140
 20
78.732814
 30
0.0
 10
93.561140
 20
83.682830
 30
0.0
 10
97.760143
 20
86.157839
 30
0.0
 10
101.959145
 20
83.682831
 30
0.0
 10
101.959145
 20
78.732814
 30
0.0
  0
LWPOLYLINE
  5
163
100
AcDbEntity
  8
0
 62
1
100
AcDbPolyline
 90
6
 70
1
 10
123.960539
 20
85.667132
 30
0.0
 10
119.761536
 20
88.142140
 30
0.0
 10
119.761536
 20
93.092157
 30
0.0
 10
123.960539
 20
95.567165
 30
0.0
 10
128.159541
 20
93.092157
 30
0.0
 10
128.159541
 20
88.142140
 30
0.0
  0
LWPOLYLINE
  5
164
100
AcDbEntity
  8
0
 62
1
100
AcDbPolyline
 90
6
 70
1
 10
134.419874
 20
85.667132
 30
0.0
 10
130.220871
 20
88.142140
 30
0.0
 10
130.220871
 20
93.092157
 30
0.0
 10
134.419874
 20
95.567165
 30
0.0
 10
138.618876
 20
93.092157
 30
0.0
 10
138.618876
 20
88.142140
 30
0.0
  0
LWPOLYLINE
  5
165
100
AcDbEntity
  8
0
 62
1
100
AcDbPolyline
 90
6
 70
1
 10
113.501240
 20
85.667132
 30
0.0
 10
109.302237
 20
88.142140
 30
0.0
 10
109.302237
 20
93.092157
 30
0.0
 10
113.501240
 20
95.567165
 30
0.0
 10
117.700242
 20
93.092157
 30
0.0
 10
117.700242
 20
88.142140
 30
0.0
  0
LWPOLYLINE
  5
166
100
AcDbEntity
  8
0
 62
1
100
AcDbPolyline
 90
6
 70
1
 10
103.041905
 20
85.667132
 30
0.0
 10
98.842902
 20
88.142140
 30
0.0
 10
98.842902
 20
93.092157
 30
0.0
 10
103.041905
 20
95.567165
 30
0.0
 10
107.240907
 20
93.092157
 30
0.0
 10
107.240907
 20
88.142140
 30
0.0
  0
LWPOLYLINE
  5
167
100
AcDbEntity
  8
0
 62
1
100
AcDbPolyline
 90
6
 70
1
 10
118.822314
 20
113.529599
 30
0.0
 10
114.623311
 20
116.004607
 30
0.0
 10
114.623311
 20
120.954623
 30
0.0
 10
118.822314
 20
123.429632
 30
0.0
 10
123.021316
 20
120.954624
 30
0.0
 10
123.021316
 20
116.004607
 30
0.0
  0
LWPOLYLINE
  5
168
100
AcDbEntity
  8
0
 62
1
100
AcDbPolyline
 90
6
 70
1
 10
129.281649
 20
113.529599
 30
0.0
 10
125.082646
 20
116.004607
 30
0.0
 10
125.082646
 20
120.954623
 30
0.0
 10
129.281649
 20
123.429632
 30
0.0
 10
133.480651
 20
120.954624
 30
0.0
 10
133.480651
 20
116.004607
 30
0.0
  0
LWPOLYLINE
  5
169
100
AcDbEntity
  8
0
 62
1
100
AcDbPolyline
 90
6
 70
1
 10
108.363015
 20
113.529599
 30
0.0
 10
104.164012
 20
116.004607
 30
0.0
 10
104.164012
 20
120.954623
 30
0.0
 10
108.363015
 20
123.429632
 30
0.0
 10
112.562017
 20
120.954624
 30
0.0
 10
112.562017
 20
116.004607
 30
0.0
  0
LWPOLYLINE
  5
16a
100
AcDbEntity
  8
0
 62
1
100
AcDbPolyline
 90
6
 70
1
 10
118.742578
 20
94.982184
 30
0.0
 10
114.543575
 20
97.457192
 30
0.0
 10
114.543575
 20
102.407209
 30
0.0
 10
118.742578
 20
104.882217
 30
0.0
 10
122.941580
 20
102.407209
 30
0.0
 10
122.941580
 20
97.457192
 30
0.0
  0
LWPOLYLINE
  5
16b
100
AcDbEntity
  8
0
 62
1
100
AcDbPolyline
 90
6
 70
1
 10
129.201913
 20
94.982184
 30
0.0
 10
125.002910
 20
97.457192
 30
0.0
 10
125.002910
 20
102.407209
 30
0.0
 10
129.201913
 20
104.882217
 30
0.0
 10
133.400915
 20
102.407209
 30
0.0
 10
133.400915
 20
97.457192
 30
0.0
  0
LWPOLYLINE
  5
16c
100
AcDbEntity
  8
0
 62
1
100
AcDbPolyline
 90
6
 70
1
 10
108.283279
 20
94.982184
 30
0.0
 10
104.084276
 20
97.457192
 30
0.0
 10
104.084276
 20
102.407209
 30
0.0
 10
108.283279
 20
104.882217
 30
0.0
 10
112.482281
 20
102.407209
 30
0.0
 10
112.482281
 20
97.457192
 30
0.0
  0
LWPOLYLINE
  5
16d
100
AcDbEntity
  8
0
 62
1
100
AcDbPolyline
 90
6
 70
1
 10
97.823944
 20
94.982184
 30
0.0
 10
93.624941
 20
97.457192
 30
0.0
 10
93.624941
 20
102.407209
 30
0.0
 10
97.823944
 20
104.882217
 30
0.0
 10
102.022946
 20
102.407209
 30
0.0
 10
102.022946
 20
97.457192
 30
0.0
  0
LWPOLYLINE
  5
16e
100
AcDbEntity
  8
0
 62
1
100
AcDbPolyline
 90
6
 70
1
 10
139.661238
 20
94.982184
 30
0.0
 10
135.462235
 20
97.457192
 30
0.0
 10
135.462235
 20
102.407209
 30
0.0
 10
139.661238
 20
104.882217
 30
0.0
 10
143.860240
 20
102.407209
 30
0.0
 10
143.860240
 20
97.457192
 30
0.0
  0
LWPOLYLINE
  5
16f
100
AcDbEntity
  8
0
 62
1
100
AcDbPolyline
 90
6
 70
1
 10
124.024340
 20
104.391511
 30
0.0
 10
119.825337
 20
106.866519
 30
0.0
 10
119.825337
 20
111.816535
 30
0.0
 10
124.024340
 20
114.291544
 30
0.0
 10
128.223342
 20
111.816536
 30
0.0
 10
128.223342
 20
106.866519
 30
0.0
  0
LWPOLYLINE
  5
170
100
AcDbEntity
  8
0
 62
1
100
AcDbPolyline
 90
6
 70
1
 10
134.483675
 20
104.391511
 30
0.0
 10
130.284672
 20
106.866519
 30
0.0
 10
130.284672
 20
111.816535
 30
0.0
 10
134.483675
 20
114.291544
 30
0.0
 10
138.682677
 20
111.816536
 30
0.0
 10
138.682677
 20
106.866519
 30
0.0
  0
LWPOLYLINE
  5
171
100
AcDbEntity
  8
0
 62
1
100
AcDbPolyline
 90
6
 70
1
 10
113.565041
 20
104.391511
 30
0.0
 10
109.366038
 20
106.866519
 30
0.0
 10
109.366038
 20
111.816535
 30
0.0
 10
113.565041
 20
114.291544
 30
0.0
 10
117.764043
 20
111.816536
 30
0.0
 10
117.764043
 20
106.866519
 30
0.0
  0
LWPOLYLINE
  5
172
100
AcDbEntity
  8
0
 62
1
100
AcDbPolyline
 90
6
 70
1
 10
103.105706
 20
104.391511
 30
0.0
 10
98.906703
 20
106.866519
 30
0.0
 10
98.906703
 20
111.816535
 30
0.0
 10
103.105706
 20
114.291544
 30
0.0
 10
107.304708
 20
111.816536
 30
0.0
 10
107.304708
 20
106.866519
 30
0.0
  0
LWPOLYLINE
  5
173
100
AcDbEntity
  8
0
 62
1
100
AcDbPolyline
 90
4
 70
1
 10
-28.250000
 20
62.549999
 30
0.0
 10
-16.250001
 20
62.549999
 30
0.0
 10
-16.250001
 20
56.549999
 30
0.0
 10
-28.250000
 20
56.549999
 30
0.0
  0
LWPOLYLINE
  5
174
100
AcDbEntity
  8
0
 62
1
100
AcDbPolyline
 90
4
 70
1
 10
-12.450003
 20
62.549999
 30
0.0
 10
-2.450005
 20
62.549999
 30
0.0
 10
-2.450005
 20
56.549999
 30
0.0
 10
-12.450003
 20
56.549999
 30
0.0
  0
SPLINE
  5
175
100
AcDbEntity
  8
0
 62
1
100
AcDbSpline
 70
8
 71
3
 72
8
 73
4
 74
0
 40
0
 40
0
 40
0
 40
0
 40
1
 40
1
 40
1
 40
1
 10
24.202737
 20
60.228756
 30
0.0
 10
24.202737
 20
58.185302
 30
0.0
 10
22.546191
 20
56.528756
 30
0.0
 10
20.502737
 20
56.528756
 30
0.0
  0
SPLINE
  5
176
100
AcDbEntity
  8
0
 62
1
100
AcDbSpline
 70
8
 71
3
 72
8
 73
4
 74
0
 40
0
 40
0
 40
0
 40
0
 40
1
 40
1
 40
1
 40
1
 10
20.502737
 20
56.528756
 30
0.0
 10
18.459283
 20
56.528756
 30
0.0
 10
16.802737
 20
58.185302
 30
0.0
 10
16.802737
 20
60.228756
 30
0.0
  0
SPLINE
  5
177
100
AcDbEntity
  8
0
 62
1
100
AcDbSpline
 70
8
 71
3
 72
8
 73
4
 74
0
 40
0
 40
0
 40
0
 40
0
 40
1
 40
1
 40
1
 40
1
 10
16.802737
 20
60.228756
 30
0.0
 10
16.802737
 20
61.550639
 30
0.0
 10
17.507953
 20
62.772109
 30
0.0
 10
18.652737
 20
63.433050
 30
0.0
  0
SPLINE
  5
178
100
AcDbEntity
  8
0
 62
1
100
AcDbSpline
 70
8
 71
3
 72
8
 73
4
 74
0
 40
0
 40
0
 40
0
 40
0
 40
1
 40
1
 40
1
 40
1
 10
18.652737
 20
63.433050
 30
0.0
 10
19.797521
 20
64.093991
 30
0.0
 10
21.207953
 20
64.093991
 30
0.0
 10
22.352737
 20
63.433050
 30
0.0
  0
SPLINE
  5
179
100
AcDbEntity
  8
0
 62
1
100
AcDbSpline
 70
8
 71
3
 72
8
 73
4
 74
0
 40
0
 40
0
 40
0
 40
0
 40
1
 40
1
 40
1
 40
1
 10
22.352737
 20
63.433050
 30
0.0
 10
23.497521
 20
62.772109
 30
0.0
 10
24.202737
 20
61.550639
 30
0.0
 10
24.202737
 20
60.228756
 30
0.0
  0
LWPOLYLINE
  5
17a
100
AcDbEntity
  8
0
 62
1
100
AcDbPolyline
 90
4
 70
1
 10
1.049999
 20
62.549999
 30
0.0
 10
11.049997
 20
62.549999
 30
0.0
 10
11.049997
 20
56.549999
 30
0.0
 10
1.049999
 20
56.549999
 30
0.0
  0
LWPOLYLINE
  5
17b
100
AcDbEntity
  8
0
 62
1
100
AcDbPolyline
 90
1
 70
1
 10
24.202737
 20
60.228756
 30
0.0
  0
ENDSEC
  0
SECTION
  2
OBJECTS
  0
DICTIONARY
  5
C
330
0
100
AcDbDictionary
  3
ACAD_GROUP
350
D
  3
ACAD_MLINESTYLE
350
17
  0
DICTIONARY
  5
D
330
C
100
AcDbDictionary
  0
DICTIONARY
  5
1A
330
C
100
AcDbDictionary
  0
DICTIONARY
  5
17
330
C
100
AcDbDictionary
  3
STANDARD
350
18
  0
DICTIONARY
  5
19
330
C
100
AcDbDictionary
  0
ENDSEC
  0
EOF
